<svg xmlns="http://www.w3.org/2000/svg" width="538.473" height="548.973" viewBox="0 0 538.473 548.973"><circle fill="#222" cx="271.49" cy="273.473" r="258.792"/><circle fill="#FFF" cx="271.49" cy="273.473" r="238.089"/><path fill="#222" d="M92.936 415.896h356.56c14.318-19 26.03-38.426 34.527-60.053L305.277 45.95c-11.114-1.66-22.484-2.677-34.062-2.677-11.575 0-22.948.795-34.06 2.456L58.41 355.88c8.498 21.627 20.206 41.016 34.526 60.016z"/><g fill="#FFF"><path d="M175.675 387.798c-34.18 0-61.834-27.654-61.834-61.834v-93.84c0-34.178 27.656-61.833 61.835-61.833h12.43c34.178 0 61.833 27.656 61.833 61.835v93.84c0 34.18-27.655 61.833-61.834 61.833h-12.43zm-54.69-61.834c0 30.14 24.55 54.688 54.69 54.688h12.428c30.14 0 54.688-24.548 54.688-54.688v-93.84c0-30.14-24.547-54.687-54.687-54.687h-12.43c-30.14 0-54.687 24.547-54.687 54.688v93.84zM413.075 387.798V185.205l-63.7 103.16-64.63-103.47v202.902h-7.147V170.29h6.526l65.252 104.405 64.32-104.404h6.524V387.8h-7.145z"/></g></svg>