<?xml version="1.0" encoding="utf-8"?>
<!-- Generator: Adobe Illustrator 16.0.0, SVG Export Plug-In . SVG Version: 6.00 Build 0)  -->
<!DOCTYPE svg PUBLIC "-//W3C//DTD SVG 1.1//EN" "http://www.w3.org/Graphics/SVG/1.1/DTD/svg11.dtd">
<svg version="1.1" id="Layer_1" xmlns="http://www.w3.org/2000/svg" xmlns:xlink="http://www.w3.org/1999/xlink" x="0px" y="0px"
	 width="538.473px" height="548.973px" viewBox="0 0 538.473 548.973" enable-background="new 0 0 538.473 548.973"
	 xml:space="preserve">
<g>
	<circle fill="#222222" cx="271.49" cy="273.473" r="258.792"/>
	<circle fill="#FFFFFF" cx="271.49" cy="273.473" r="238.089"/>
	<path fill="#222222" d="M92.936,415.896h356.56c14.318-19,26.029-38.426,34.527-60.053L305.277,45.95
		c-11.114-1.66-22.484-2.677-34.062-2.677c-11.575,0-22.948,0.795-34.06,2.456L58.41,355.88
		C66.908,377.507,78.616,396.896,92.936,415.896z"/>
	<g>
		<path fill="#FFFFFF" d="M175.675,387.798c-34.18,0-61.834-27.654-61.834-61.834v-93.839c0-34.179,27.655-61.834,61.834-61.834
			h12.429c34.179,0,61.834,27.655,61.834,61.834v93.839c0,34.18-27.655,61.834-61.834,61.834H175.675z M120.986,325.964
			c0,30.141,24.548,54.688,54.688,54.688h12.429c30.14,0,54.688-24.548,54.688-54.688v-93.839c0-30.14-24.548-54.688-54.688-54.688
			h-12.429c-30.14,0-54.688,24.547-54.688,54.688V325.964z"/>
		<path fill="#FFFFFF" d="M413.075,387.798V185.205l-63.699,103.161l-64.631-103.472v202.903h-7.147V170.291h6.526l65.252,104.404
			l64.32-104.404h6.524v217.507H413.075z"/>
	</g>
</g>
<g>
</g>
<g>
</g>
<g>
</g>
<g>
</g>
<g>
</g>
<g>
</g>
<g>
</g>
<g>
</g>
<g>
</g>
<g>
</g>
<g>
</g>
<g>
</g>
<g>
</g>
<g>
</g>
<g>
</g>
</svg>
